<svg width="411" height="91" viewBox="0 0 411 91" fill="none" xmlns="http://www.w3.org/2000/svg">
<rect width="411" height="91" fill="#F5F5F5"/>
<g filter="url(#filter0_dd_0_1)">
<path d="M2 8C2 4.68629 4.68629 2 8 2H155V89H8C4.68629 89 2 86.3137 2 83V8Z" fill="#15ABFF"/>
</g>
<g filter="url(#filter1_dd_0_1)">
<path d="M155 2H403C406.314 2 409 4.68629 409 8V83C409 86.3137 406.314 89 403 89H155V2Z" fill="#1E2128"/>
</g>
<path d="M47.36 73.6C44.2 73.6 41.28 73.08 38.6 72.04C35.96 70.96 33.66 69.46 31.7 67.54C29.74 65.58 28.22 63.28 27.14 60.64C26.1 57.96 25.58 55.02 25.58 51.82C25.58 48.7 26.14 45.82 27.26 43.18C28.38 40.54 29.92 38.26 31.88 36.34C33.88 34.38 36.22 32.86 38.9 31.78C41.62 30.7 44.58 30.16 47.78 30.16C49.78 30.16 51.74 30.42 53.66 30.94C55.58 31.46 57.36 32.24 59 33.28C60.68 34.28 62.12 35.48 63.32 36.88L57.08 44.02C56.24 43.14 55.34 42.38 54.38 41.74C53.46 41.06 52.44 40.54 51.32 40.18C50.2 39.82 49 39.64 47.72 39.64C46.12 39.64 44.6 39.94 43.16 40.54C41.76 41.1 40.52 41.92 39.44 43C38.4 44.04 37.58 45.32 36.98 46.84C36.38 48.36 36.08 50.06 36.08 51.94C36.08 53.78 36.38 55.46 36.98 56.98C37.58 58.46 38.42 59.74 39.5 60.82C40.58 61.9 41.88 62.72 43.4 63.28C44.96 63.84 46.68 64.12 48.56 64.12C49.84 64.12 51.06 63.94 52.22 63.58C53.38 63.22 54.44 62.74 55.4 62.14C56.4 61.5 57.28 60.78 58.04 59.98L62.96 67.78C61.96 68.9 60.62 69.9 58.94 70.78C57.3 71.66 55.46 72.36 53.42 72.88C51.42 73.36 49.4 73.6 47.36 73.6ZM80.6802 73.54C78.0002 73.54 75.6002 72.84 73.4802 71.44C71.4002 70 69.7402 68.04 68.5002 65.56C67.2602 63.04 66.6402 60.2 66.6402 57.04C66.6402 53.8 67.2602 50.94 68.5002 48.46C69.7402 45.98 71.4402 44.04 73.6002 42.64C75.7602 41.2 78.2202 40.48 80.9802 40.48C82.5002 40.48 83.8802 40.7 85.1202 41.14C86.4002 41.58 87.5202 42.2 88.4802 43C89.4402 43.76 90.2602 44.66 90.9402 45.7C91.6202 46.7 92.1202 47.78 92.4402 48.94L90.4602 48.7V41.14H100V73L90.2802 73V65.32L92.4402 65.26C92.1202 66.38 91.6002 67.44 90.8802 68.44C90.1602 69.44 89.2802 70.32 88.2402 71.08C87.2002 71.84 86.0402 72.44 84.7602 72.88C83.4802 73.32 82.1202 73.54 80.6802 73.54ZM83.3202 65.44C84.8002 65.44 86.0802 65.1 87.1602 64.42C88.2402 63.74 89.0802 62.78 89.6802 61.54C90.2802 60.26 90.5802 58.76 90.5802 57.04C90.5802 55.32 90.2802 53.84 89.6802 52.6C89.0802 51.32 88.2402 50.34 87.1602 49.66C86.0802 48.94 84.8002 48.58 83.3202 48.58C81.8802 48.58 80.6202 48.94 79.5402 49.66C78.5002 50.34 77.6802 51.32 77.0802 52.6C76.4802 53.84 76.1802 55.32 76.1802 57.04C76.1802 58.76 76.4802 60.26 77.0802 61.54C77.6802 62.78 78.5002 63.74 79.5402 64.42C80.6202 65.1 81.8802 65.44 83.3202 65.44ZM108.471 73V41.14L117.591 41.14L118.011 51.52L116.211 49.54C116.691 47.82 117.471 46.28 118.551 44.92C119.671 43.56 120.971 42.48 122.451 41.68C123.931 40.88 125.511 40.48 127.191 40.48C127.911 40.48 128.571 40.54 129.171 40.66C129.811 40.78 130.391 40.92 130.911 41.08L128.271 51.7C127.831 51.42 127.231 51.2 126.471 51.04C125.751 50.84 124.991 50.74 124.191 50.74C123.311 50.74 122.491 50.9 121.731 51.22C120.971 51.5 120.331 51.92 119.811 52.48C119.291 53.04 118.871 53.7 118.551 54.46C118.271 55.22 118.131 56.08 118.131 57.04V73H108.471Z" fill="#171A1F"/>
<path d="M181.2 73.6C178.44 73.6 175.94 73.28 173.7 72.64C171.5 71.96 169.54 71 167.82 69.76C166.1 68.48 164.56 66.98 163.2 65.26L169.38 58.24C171.38 60.92 173.38 62.72 175.38 63.64C177.42 64.56 179.52 65.02 181.68 65.02C182.76 65.02 183.74 64.88 184.62 64.6C185.5 64.32 186.18 63.92 186.66 63.4C187.14 62.84 187.38 62.16 187.38 61.36C187.38 60.76 187.22 60.22 186.9 59.74C186.62 59.26 186.22 58.84 185.7 58.48C185.18 58.12 184.56 57.8 183.84 57.52C183.12 57.2 182.36 56.94 181.56 56.74C180.76 56.5 179.94 56.3 179.1 56.14C176.78 55.62 174.76 54.98 173.04 54.22C171.32 53.46 169.88 52.54 168.72 51.46C167.6 50.34 166.76 49.08 166.2 47.68C165.64 46.24 165.36 44.64 165.36 42.88C165.36 41 165.78 39.28 166.62 37.72C167.5 36.12 168.66 34.76 170.1 33.64C171.58 32.48 173.28 31.6 175.2 31C177.12 30.36 179.12 30.04 181.2 30.04C183.96 30.04 186.32 30.34 188.28 30.94C190.28 31.5 191.98 32.32 193.38 33.4C194.82 34.48 196.04 35.78 197.04 37.3L190.74 43.36C189.9 42.32 188.98 41.46 187.98 40.78C187.02 40.1 185.98 39.58 184.86 39.22C183.78 38.86 182.66 38.68 181.5 38.68C180.3 38.68 179.26 38.84 178.38 39.16C177.54 39.44 176.88 39.86 176.4 40.42C175.92 40.94 175.68 41.58 175.68 42.34C175.68 43.02 175.88 43.6 176.28 44.08C176.68 44.56 177.22 45 177.9 45.4C178.58 45.76 179.36 46.08 180.24 46.36C181.12 46.6 182.04 46.8 183 46.96C185.2 47.4 187.18 47.98 188.94 48.7C190.74 49.42 192.28 50.3 193.56 51.34C194.88 52.38 195.88 53.62 196.56 55.06C197.28 56.46 197.64 58.1 197.64 59.98C197.64 62.9 196.92 65.38 195.48 67.42C194.08 69.42 192.14 70.96 189.66 72.04C187.22 73.08 184.4 73.6 181.2 73.6ZM218.267 73.6C215.187 73.6 212.427 72.88 209.987 71.44C207.547 70 205.607 68.04 204.167 65.56C202.767 63.04 202.067 60.2 202.067 57.04C202.067 53.88 202.767 51.06 204.167 48.58C205.607 46.06 207.547 44.08 209.987 42.64C212.427 41.2 215.187 40.48 218.267 40.48C221.107 40.48 223.707 40.98 226.067 41.98C228.467 42.98 230.367 44.38 231.767 46.18L226.547 52.42C225.987 51.78 225.327 51.18 224.567 50.62C223.807 50.06 222.967 49.62 222.047 49.3C221.127 48.98 220.167 48.82 219.167 48.82C217.647 48.82 216.307 49.18 215.147 49.9C213.987 50.58 213.087 51.54 212.447 52.78C211.807 54.02 211.487 55.44 211.487 57.04C211.487 58.56 211.807 59.94 212.447 61.18C213.127 62.42 214.047 63.4 215.207 64.12C216.367 64.84 217.687 65.2 219.167 65.2C220.207 65.2 221.167 65.08 222.047 64.84C222.927 64.56 223.727 64.16 224.447 63.64C225.207 63.12 225.907 62.48 226.547 61.72L231.707 68.02C230.347 69.74 228.447 71.1 226.007 72.1C223.607 73.1 221.027 73.6 218.267 73.6ZM251.983 73.6C248.663 73.6 245.703 72.88 243.103 71.44C240.543 70 238.503 68.04 236.983 65.56C235.503 63.08 234.763 60.24 234.763 57.04C234.763 53.84 235.503 51 236.983 48.52C238.503 46.04 240.543 44.08 243.103 42.64C245.703 41.2 248.663 40.48 251.983 40.48C255.303 40.48 258.243 41.2 260.803 42.64C263.403 44.08 265.443 46.04 266.923 48.52C268.403 51 269.143 53.84 269.143 57.04C269.143 60.24 268.403 63.08 266.923 65.56C265.443 68.04 263.403 70 260.803 71.44C258.243 72.88 255.303 73.6 251.983 73.6ZM251.983 65.32C253.423 65.32 254.703 64.96 255.823 64.24C256.943 63.52 257.823 62.54 258.463 61.3C259.103 60.06 259.403 58.64 259.363 57.04C259.403 55.44 259.103 54.02 258.463 52.78C257.823 51.5 256.943 50.5 255.823 49.78C254.703 49.06 253.423 48.7 251.983 48.7C250.543 48.7 249.243 49.06 248.083 49.78C246.963 50.5 246.083 51.5 245.443 52.78C244.803 54.02 244.503 55.44 244.543 57.04C244.503 58.64 244.803 60.06 245.443 61.3C246.083 62.54 246.963 63.52 248.083 64.24C249.243 64.96 250.543 65.32 251.983 65.32ZM286.28 73.66C283.92 73.66 281.9 73.16 280.22 72.16C278.58 71.12 277.3 69.64 276.38 67.72C275.5 65.8 275.06 63.5 275.06 60.82V41.14H284.72V59.5C284.72 60.78 284.92 61.88 285.32 62.8C285.72 63.72 286.32 64.44 287.12 64.96C287.92 65.44 288.88 65.68 290 65.68C290.84 65.68 291.6 65.54 292.28 65.26C293 64.98 293.6 64.6 294.08 64.12C294.6 63.6 295 63.02 295.28 62.38C295.56 61.7 295.7 60.96 295.7 60.16V41.14L305.36 41.14V73H296.3L295.88 66.46L297.68 65.74C297.2 67.26 296.4 68.62 295.28 69.82C294.16 70.98 292.82 71.92 291.26 72.64C289.7 73.32 288.04 73.66 286.28 73.66ZM316.556 73V33.1H326.156V73L316.556 73ZM310.916 49.54V41.14L332.336 41.14V49.54L310.916 49.54ZM337.103 73L335.123 68.08L347.363 54.7C348.043 53.94 348.783 53.08 349.583 52.12C350.383 51.16 351.163 50.18 351.923 49.18C352.683 48.14 353.283 47.14 353.723 46.18C354.203 45.22 354.443 44.34 354.443 43.54C354.443 42.74 354.263 42.04 353.903 41.44C353.543 40.84 353.023 40.38 352.343 40.06C351.663 39.7 350.803 39.52 349.763 39.52C348.843 39.52 347.963 39.76 347.123 40.24C346.283 40.68 345.483 41.38 344.723 42.34C344.003 43.3 343.323 44.48 342.683 45.88L335.123 41.8C335.963 39.48 337.143 37.44 338.663 35.68C340.223 33.88 342.043 32.5 344.123 31.54C346.203 30.54 348.423 30.04 350.783 30.04C353.263 30.08 355.503 30.62 357.503 31.66C359.503 32.66 361.083 34.08 362.243 35.92C363.443 37.72 364.043 39.84 364.043 42.28C364.043 43.12 363.943 44 363.743 44.92C363.543 45.84 363.243 46.8 362.843 47.8C362.443 48.76 361.903 49.8 361.223 50.92C360.583 52 359.803 53.14 358.883 54.34C357.963 55.54 356.883 56.82 355.643 58.18L346.103 68.56L344.903 64L365.903 64V73L337.103 73ZM383.654 73.6C380.254 73.6 377.274 72.9 374.714 71.5C372.194 70.06 369.894 67.6 367.814 64.12L375.134 59.38C376.014 60.78 376.914 61.9 377.834 62.74C378.794 63.58 379.774 64.2 380.774 64.6C381.814 64.96 382.894 65.14 384.014 65.14C385.134 65.14 386.154 64.9 387.074 64.42C388.034 63.9 388.794 63.18 389.354 62.26C389.954 61.34 390.254 60.3 390.254 59.14C390.254 57.9 389.994 56.86 389.474 56.02C388.994 55.14 388.274 54.48 387.314 54.04C386.394 53.6 385.274 53.38 383.954 53.38C383.354 53.38 382.714 53.46 382.034 53.62C381.354 53.74 380.634 53.92 379.874 54.16C379.114 54.4 378.334 54.72 377.534 55.12L375.314 49.18L385.514 38.08L388.274 39.58L370.754 39.22V30.64L396.554 30.64L398.414 34.36L384.554 49.24L382.154 46.42C382.474 46.26 382.994 46.12 383.714 46C384.474 45.84 385.194 45.76 385.874 45.76C387.754 45.76 389.514 46.1 391.154 46.78C392.794 47.46 394.254 48.4 395.534 49.6C396.814 50.8 397.814 52.22 398.534 53.86C399.254 55.46 399.614 57.18 399.614 59.02C399.614 61.82 398.894 64.32 397.454 66.52C396.054 68.68 394.134 70.4 391.694 71.68C389.294 72.96 386.614 73.6 383.654 73.6Z" fill="white"/>
<defs>
<filter id="filter0_dd_0_1" x="0" y="0" width="157" height="91" filterUnits="userSpaceOnUse" color-interpolation-filters="sRGB">
<feFlood flood-opacity="0" result="BackgroundImageFix"/>
<feColorMatrix in="SourceAlpha" type="matrix" values="0 0 0 0 0 0 0 0 0 0 0 0 0 0 0 0 0 0 127 0" result="hardAlpha"/>
<feOffset/>
<feGaussianBlur stdDeviation="0.5"/>
<feColorMatrix type="matrix" values="0 0 0 0 0.0901961 0 0 0 0 0.101961 0 0 0 0 0.121569 0 0 0 0.07 0"/>
<feBlend mode="normal" in2="BackgroundImageFix" result="effect1_dropShadow_0_1"/>
<feColorMatrix in="SourceAlpha" type="matrix" values="0 0 0 0 0 0 0 0 0 0 0 0 0 0 0 0 0 0 127 0" result="hardAlpha"/>
<feOffset/>
<feGaussianBlur stdDeviation="1"/>
<feColorMatrix type="matrix" values="0 0 0 0 0.0901961 0 0 0 0 0.101961 0 0 0 0 0.121569 0 0 0 0.12 0"/>
<feBlend mode="normal" in2="effect1_dropShadow_0_1" result="effect2_dropShadow_0_1"/>
<feBlend mode="normal" in="SourceGraphic" in2="effect2_dropShadow_0_1" result="shape"/>
</filter>
<filter id="filter1_dd_0_1" x="153" y="0" width="258" height="91" filterUnits="userSpaceOnUse" color-interpolation-filters="sRGB">
<feFlood flood-opacity="0" result="BackgroundImageFix"/>
<feColorMatrix in="SourceAlpha" type="matrix" values="0 0 0 0 0 0 0 0 0 0 0 0 0 0 0 0 0 0 127 0" result="hardAlpha"/>
<feOffset/>
<feGaussianBlur stdDeviation="0.5"/>
<feColorMatrix type="matrix" values="0 0 0 0 0.0901961 0 0 0 0 0.101961 0 0 0 0 0.121569 0 0 0 0.07 0"/>
<feBlend mode="normal" in2="BackgroundImageFix" result="effect1_dropShadow_0_1"/>
<feColorMatrix in="SourceAlpha" type="matrix" values="0 0 0 0 0 0 0 0 0 0 0 0 0 0 0 0 0 0 127 0" result="hardAlpha"/>
<feOffset/>
<feGaussianBlur stdDeviation="1"/>
<feColorMatrix type="matrix" values="0 0 0 0 0.0901961 0 0 0 0 0.101961 0 0 0 0 0.121569 0 0 0 0.12 0"/>
<feBlend mode="normal" in2="effect1_dropShadow_0_1" result="effect2_dropShadow_0_1"/>
<feBlend mode="normal" in="SourceGraphic" in2="effect2_dropShadow_0_1" result="shape"/>
</filter>
</defs>
</svg>
